<?xml version="1.0" encoding="utf-8"?>
<!-- Generator: Adobe Illustrator 23.0.1, SVG Export Plug-In . SVG Version: 6.00 Build 0)  -->
<!DOCTYPE svg PUBLIC "-//W3C//DTD SVG 1.1//EN" "http://www.w3.org/Graphics/SVG/1.1/DTD/svg11.dtd" [
	<!ENTITY ns_extend "http://ns.adobe.com/Extensibility/1.0/">
	<!ENTITY ns_ai "http://ns.adobe.com/AdobeIllustrator/10.0/">
	<!ENTITY ns_graphs "http://ns.adobe.com/Graphs/1.0/">
	<!ENTITY ns_vars "http://ns.adobe.com/Variables/1.0/">
	<!ENTITY ns_imrep "http://ns.adobe.com/ImageReplacement/1.0/">
	<!ENTITY ns_sfw "http://ns.adobe.com/SaveForWeb/1.0/">
	<!ENTITY ns_custom "http://ns.adobe.com/GenericCustomNamespace/1.0/">
	<!ENTITY ns_adobe_xpath "http://ns.adobe.com/XPath/1.0/">
]>
<svg version="1.1" id="Layer_5" xmlns:x="&ns_extend;" xmlns:i="&ns_ai;" xmlns:graph="&ns_graphs;"
	 xmlns="http://www.w3.org/2000/svg" xmlns:xlink="http://www.w3.org/1999/xlink" x="0px" y="0px" viewBox="0 0 866.7 388.2"
	 enable-background="new 0 0 866.7 388.2" xml:space="preserve">

<g>
	<g>
		<path fill="#231F20" d="M397.4,279.9l113-17.1l85-126.4H472.8c-0.5,0-0.7,0.4-0.3,0.7c0.2,0.1,0.5,0.3,0.5,0.3
			c5.1,2.4,13.5,10-2.5,33.8L397.4,279.9z"/>
		<path fill="#231F20" d="M618.4,136.5H604c-0.5,0-0.7,0.4-0.3,0.7c0.2,0.1,0.5,0.3,0.5,0.3c5.1,2.4,13.5,10-2.5,33.8l-57.9,86
			l-0.3,0.5l76.1-11.6c8.1-1.4,15.3-3.6,21.7-7.1c21.3-11.6,35.6-28.9,48.8-48.4l36.5-54.3H618.4V136.5z"/>
		<path fill="#231F20" d="M251.2,302l113.1-17.1l99.9-148.5H12c-2.2,0-3.6,0.8-3.6,2.5c0,1.3,0.9,2.3,3.6,2.7l313.1,50.6L251.2,302z
			"/>
		<polygon fill="#231F20" points="136.8,184.6 0,388.2 182,360.6 283.4,209.9 		"/>
		<path fill="#231F20" d="M399,0h-59.5C296,2,264.3,17.6,238.6,38.3c-19.5,15.7-35.8,35-50.4,55.5l-13.1,19.5h523.3
			c30.7-1.3,54-7.6,75.3-19.2c34.4-18.6,59.7-45.9,81.3-76.7L866.7,0C861.6,0,399,0,399,0z"/>
	</g>
</g>
</svg>
